<svg width="20" height="20" viewBox="0 0 20 20" fill="none" xmlns="http://www.w3.org/2000/svg">
<path fill-rule="evenodd" clip-rule="evenodd" d="M14.1355 14.9973C12.815 16.1215 11.1033 16.8 9.23317 16.8C5.05422 16.8 1.6665 13.4122 1.6665 9.23329C1.6665 5.05434 5.05422 1.66663 9.23317 1.66663C13.4121 1.66663 16.7998 5.05434 16.7998 9.23329C16.7998 11.0921 16.1296 12.7944 15.0175 14.1116L18.6495 17.7436L17.7657 18.6275L14.1355 14.9973ZM15.5498 9.23329C15.5498 12.7219 12.7218 15.55 9.23317 15.55C5.74457 15.55 2.9165 12.7219 2.9165 9.23329C2.9165 5.74469 5.74457 2.91663 9.23317 2.91663C12.7218 2.91663 15.5498 5.74469 15.5498 9.23329Z" fill="black" fill-opacity="0.7"/>
</svg>
